:SAMPLES-PER-SECOND 30
:FULLY-SPECIFIED
:DEGREES
277
root  34.89019739 36.51184022 -14.85721858 8.034811974 -5.374878883 3.666016817
lowerback  -7.425770283 -0.9467380047 -0.5628756881
upperback  -3.698649883 -0.8028489947 -3.470890045
thorax  0.3014999926 -0.2590619922 -3.325089931
lowerneck  -12.21020031 0.229245007 1.022240043
upperneck  14.32740021 -0.4219039679 5.067339897
head  6.381820202 0.3899500072 1.426349998
lclavicle  0 -4.497500157e-015 -2.743230041e-014
lhumerus  -47.72079849 28.53199959 64.35209656
lradius  0.004719055258 -6.507048965e-006 30.7154007
lwrist  4.824992743e-007 -3.790274832e-007 -27.8071003
lhand  -4.419582373e-031 -36.96789932 -10.30860043
lfingers  90 7.125020027 -90
lthumb  94.76963654 -25.14894207 101.1080932
rclavicle  0 -4.497500157e-015 -2.743230041e-014
rhumerus  -54.26449966 -20.05049896 -17.91609955
rradius  -5.16745672e-007 2.214343908e-008 99.13259888
rwrist  -7.499573258e-005 0.03438235447 172.9690552
rhand  -0 2.915549994 -4.713069916
rfingers  -90 -7.125020027 -90
rthumb  -84.02499359 -10.90612461 -61.04919941
rfemur  -11.85567093 16.63861847 12.80782413
rtibia  -1.159851313 -0.9246243238 20.80403519
rfoot  0.2657129765 -21.77311516 -36.2414093
rtoes  3.802006318 19.64983806 -101.1789579
lfemur  -7.59500885 -17.07320786 -20.6786232
ltibia  2.424828768 -1.219815612 14.8036623
lfoot  0.8383641243 -23.25565529 37.88342667
ltoes  -8.592369644 -18.12884948 -115.9016117
278
root  34.88848529 36.51366046 -14.85445668 8.05593586 -5.339931965 3.685501814
lowerback  -7.433549881 -0.9490889311 -0.5188515186
upperback  -3.681710005 -0.8105750084 -3.464289904
thorax  0.3222300112 -0.2642270029 -3.343879938
lowerneck  -12.27890015 0.3514820039 1.141729951
upperneck  14.35219955 -0.2695169151 4.990399837
head  6.398200035 0.4643659592 1.396420002
lclavicle  0 -4.497500157e-015 -2.743230041e-014
lhumerus  -47.76490021 28.57309914 64.31140137
lradius  0.004719055258 -6.507048965e-006 30.82789993
lwrist  4.824992743e-007 -3.790274832e-007 -27.60169983
lhand  -0 -36.95249939 -10.28479958
lfingers  90 7.125020027 -90
lthumb  94.75750615 -25.12612947 101.0895882
rclavicle  0 -4.497500157e-015 -2.743230041e-014
rhumerus  -54.59579849 -19.59339905 -18.88739967
rradius  -5.16745672e-007 2.214343908e-008 99.84559631
rwrist  -7.499573258e-005 0.03438235447 173.1220551
rhand  -0 2.867269993 -4.93156004
rfingers  -90 -7.125020027 -90
rthumb  -84.14507185 -10.71297455 -61.11685804
rfemur  -11.87982082 16.61968994 12.79996109
rtibia  -1.17565608 -0.9134349823 20.82787704
rfoot  0.2690396011 -21.72599602 -36.2277832
rtoes  3.808418973 19.64864352 -101.1980284
lfemur  -7.59249115 -17.0762825 -20.70658684
ltibia  2.459938765 -1.228191018 14.75867271
lfoot  0.8257462978 -23.20896339 37.83381653
ltoes  -8.616026495 -18.117913 -115.977663
279
root  34.88579998 36.51391578 -14.84990458 8.052966118 -5.281556129 3.68612957
lowerback  -7.437589645 -0.9604960084 -0.5123682022
upperback  -3.677160025 -0.826785028 -3.455169916
thorax  0.3283230066 -0.2725960016 -3.339359999
lowerneck  -12.36480045 0.4588130116 1.249009967
upperneck  14.41600037 -0.1392191201 4.936500072
head  6.430749893 0.5312709808 1.374580026
lclavicle  0 -4.497500157e-015 -2.743230041e-014
lhumerus  -47.792099 28.62700081 64.27909851
lradius  0.004719055258 -6.507048965e-006 30.85919952
lwrist  4.824992743e-007 -3.790274832e-007 -27.54290009
lhand  -4.419704412e-031 -36.97000122 -10.2578001
lfingers  90 7.125020027 -90
lthumb  94.75980908 -25.09891884 101.1058154
rclavicle  0 -4.497500157e-015 -2.743230041e-014
rhumerus  -54.8973999 -19.13459778 -19.86320114
rradius  -5.16745672e-007 2.214343908e-008 100.387001
rwrist  -7.499573258e-005 0.03438235447 173.1760406
rhand  -8.839731404e-032 2.975660086 -4.222549915
rfingers  -90 -7.125020027 -90
rthumb  -83.7666517 -11.3374026 -60.94336324
rfemur  -11.8553009 16.59934235 12.80666542
rtibia  -1.172197223 -0.9012518525 20.81579018
rfoot  0.2593989372 -21.70366478 -36.27923203
rtoes  3.814154764 19.64757329 -101.2150869
lfemur  -7.538733006 -17.06576729 -20.72161865
ltibia  2.503886461 -1.178744674 14.68313694
lfoot  0.8355816007 -23.27850723 37.82989883
ltoes  -8.676434174 -18.08981583 -116.1720619
280
root  34.88434318 36.51486194 -14.84547713 8.06148243 -5.252851009 3.655823708
lowerback  -7.435850143 -0.9644899964 -0.5372658968
upperback  -3.672549963 -0.8303629756 -3.455019951
thorax  0.3323679864 -0.2740199864 -3.325400114
lowerneck  -12.4204998 0.5656139851 1.305029988
upperneck  14.4708004 -0.005007067695 4.928830147
head  6.455319881 0.6009370089 1.376179934
lclavicle  0 -4.497500157e-015 -2.743230041e-014
lhumerus  -47.81940079 28.66830063 64.24629974
lradius  0.004719055258 -6.507048965e-006 30.87059975
lwrist  4.824992743e-007 -3.790274832e-007 -27.45849991
lhand  -0 -36.91799927 -10.26879978
lfingers  90 7.125020027 -90
lthumb  94.73821952 -25.11161142 101.0513629
rclavicle  0 -4.497500157e-015 -2.743230041e-014
rhumerus  -55.3368988 -18.81019974 -20.8524971
rradius  -5.16745672e-007 2.214343908e-008 101.1589966
rwrist  -7.499573258e-005 0.03438235447 173.3270264
rhand  -8.844072051e-032 3.474809885 -4.410649776
rfingers  -90 -7.125020027 -90
rthumb  -83.72580932 -11.19178599 -60.47045534
rfemur  -11.82828808 16.6214695 12.83387375
rtibia  -1.149237871 -0.885451436 20.76555634
rfoot  0.2716652453 -21.68859673 -36.31855774
rtoes  3.83107388 19.6444066 -101.2654103
lfemur  -7.544948101 -17.03202057 -20.6734314
ltibia  2.492791653 -1.126754522 14.69268322
lfoot  0.8484191895 -23.38517189 37.8237114
ltoes  -8.657893709 -18.09846565 -116.1123655
281
root  34.88202733 36.51468472 -14.84129448 8.048745155 -5.202784538 3.651653528
lowerback  -7.461949348 -0.9570539594 -0.5132539272
upperback  -3.666199923 -0.8224539757 -3.441270113
thorax  0.3536039889 -0.2705729902 -3.324510098
lowerneck  -12.48820019 0.6718429923 1.294510007
upperneck  14.52219963 0.1331769973 4.967430115
head  6.480629921 0.6726449728 1.404039979
lclavicle  0 -4.497500157e-015 -2.743230041e-014
lhumerus  -47.82360077 28.68280029 64.28440094
lradius  0.004719055258 -6.507048965e-006 30.84490013
lwrist  4.824992743e-007 -3.790274832e-007 -27.44549942
lhand  -0 -36.82770157 -10.24120045
lfingers  90 7.125020027 -90
lthumb  94.69081669 -25.08746133 100.9526103
rclavicle  0 -4.497500157e-015 -2.743230041e-014
rhumerus  -55.76250076 -18.41980171 -21.86149788
rradius  -5.16745672e-007 2.214343908e-008 101.7839966
rwrist  -7.499573258e-005 0.03438235447 173.5980225
rhand  -0 3.112400055 -4.85612011
rfingers  -90 -7.125020027 -90
rthumb  -84.0442551 -10.78909429 -60.869085
rfemur  -11.79926968 16.64514351 12.85684013
rtibia  -1.144703746 -0.855429709 20.76811409
rfoot  0.2713802755 -21.64921379 -36.35286713
rtoes  3.844108393 19.641957 -101.3041849
lfemur  -7.45411396 -17.04258919 -20.70193291
ltibia  2.550070047 -1.106375813 14.59225941
lfoot  0.8390999436 -23.37555695 37.80442429
ltoes  -8.585376663 -18.13207512 -115.8791394
282
root  34.88047442 36.51555579 -14.83825774 8.060475349 -5.171839714 3.648777008
lowerback  -7.462930202 -0.9478880167 -0.4969440103
upperback  -3.660459995 -0.8128679991 -3.427740097
thorax  0.3605479896 -0.2664690018 -3.318969965
lowerneck  -12.49409962 0.786421001 1.343080044
upperneck  14.52070045 0.282640934 4.9552598
head  6.478300095 0.7463449836 1.405840039
lclavicle  0 -4.497500157e-015 -2.743230041e-014
lhumerus  -47.88629913 28.78059959 64.22350311
lradius  0.004719055258 -6.507048965e-006 30.77000046
lwrist  4.824992743e-007 -3.790274832e-007 -27.67869949
lhand  -0 -36.79150009 -10.21730042
lfingers  90 7.125020027 -90
lthumb  94.66923336 -25.0652647 100.9120208
rclavicle  0 -4.497500157e-015 -2.743230041e-014
rhumerus  -56.05590057 -18.05340004 -22.83650208
rradius  -5.16745672e-007 2.214343908e-008 102.2600021
rwrist  -7.499573258e-005 0.03438235447 173.8950043
rhand  -1.768510709e-031 3.308809996 -4.24612999
rfingers  -90 -7.125020027 -90
rthumb  -83.68830413 -11.32880751 -60.61774152
rfemur  -11.8042202 16.64790154 12.85977459
rtibia  -1.140483499 -0.8397957683 20.77106094
rfoot  0.2719816864 -21.62283897 -36.36274719
rtoes  3.833994232 19.64385852 -101.2740972
lfemur  -7.4396348 -17.11286354 -20.71202087
ltibia  2.56593442 -1.128607631 14.56424904
lfoot  0.8187462091 -23.3039341 37.79463196
ltoes  -8.62886698 -18.11196113 -116.0189608
283
root  34.87884642 36.5161325 -14.83451663 8.066357613 -5.138652802 3.647661924
lowerback  -7.438350201 -0.9075559974 -0.4099423289
upperback  -3.674160004 -0.764572978 -3.452879906
thorax  0.333570987 -0.2433619946 -3.3901999
lowerneck  -12.47729969 0.8567050099 1.412209988
upperneck  14.52250004 0.371100992 4.934090137
head  6.474559784 0.7915030122 1.395720005
lclavicle  0 -4.497500157e-015 -2.743230041e-014
lhumerus  -47.88150024 28.63439941 64.27050018
lradius  0.004719055258 -6.507048965e-006 30.76409912
lwrist  4.824992743e-007 -3.790274832e-007 -27.65519905
lhand  -4.404560901e-031 -36.70750046 -10.33139992
lfingers  90 7.125020027 -90
lthumb  94.65429932 -25.18017779 100.8324777
rclavicle  0 -4.497500157e-015 -2.743230041e-014
rhumerus  -56.39070129 -17.71850204 -23.78939819
rradius  -5.16745672e-007 2.214343908e-008 102.6589966
rwrist  -7.499573258e-005 0.03438235447 173.5130157
rhand  -1.768824823e-031 3.480360031 -4.557779789
rfingers  -90 -7.125020027 -90
rthumb  -83.79825243 -11.06390751 -60.47926671
rfemur  -11.78761768 16.66761208 12.85648346
rtibia  -1.132259846 -0.8353344798 20.74705124
rfoot  0.2700740993 -21.60877419 -36.41104507
rtoes  3.842185163 19.64231898 -101.2984634
lfemur  -7.405320168 -17.09618759 -20.72994041
ltibia  2.598375082 -1.100805402 14.51582623
lfoot  0.8325519562 -23.34509087 37.79936981
ltoes  -8.583886977 -18.13276184 -115.8743527
